<?xml version="1.0" encoding="utf-8"?>
<!-- Generator: Adobe Illustrator 25.2.3, SVG Export Plug-In . SVG Version: 6.00 Build 0)  -->
<svg version="1.1" id="Ebene_1" xmlns="http://www.w3.org/2000/svg" xmlns:xlink="http://www.w3.org/1999/xlink" x="0px" y="0px"
	 viewBox="0 0 296.6 341" style="enable-background:new 0 0 296.6 341;" xml:space="preserve">
<style type="text/css">
	.st0{fill:#FFFFFF;}
</style>
<path class="st0" d="M296.6,274.8l-34.3-68.2l-68.2,34.2l9.8,19.5l40.8-20.5c-8.1,41.6-42.7,73.4-85.4,78.2V152.8h32.7v-21.8h-32.7
	V108c24.9-5.1,43.6-27.1,43.6-53.4C203,24.5,178.5,0,148.4,0S93.9,24.5,93.9,54.6c0,26.4,18.8,48.4,43.6,53.4v22.9h-32.7v21.8h32.7
	v165.3c-42.7-4.8-77.2-36.6-85.4-78.1l40.6,20.4l9.8-19.5l-68.2-34.2L0,274.8l19.5,9.8l14.2-28.3c15.1,49,60.8,84.7,114.7,84.7
	c53.8,0,99.4-35.6,114.6-84.4l14.1,28C277.1,284.6,296.6,274.8,296.6,274.8z M115.7,54.6c0-18,14.7-32.7,32.7-32.7
	s32.7,14.7,32.7,32.7s-14.7,32.7-32.7,32.7S115.7,72.6,115.7,54.6z"/>
</svg>
