<?xml version="1.0" standalone="no"?>
<!DOCTYPE svg PUBLIC "-//W3C//DTD SVG 20010904//EN"
 "http://www.w3.org/TR/2001/REC-SVG-20010904/DTD/svg10.dtd">
<svg version="1.0" xmlns="http://www.w3.org/2000/svg"
 width="682.000000pt" height="682.000000pt" viewBox="0 0 682.000000 682.000000"
 preserveAspectRatio="xMidYMid meet">
<metadata>
Created by potrace 1.14, written by Peter Selinger 2001-2017
</metadata>
<g transform="translate(0.000000,682.000000) scale(0.100000,-0.100000)"
fill="#000000" stroke="none">
<path d="M3299 6816 c-2 -2 -22 -6 -44 -10 -127 -18 -187 -37 -320 -101 -199
-96 -368 -259 -475 -458 -44 -82 -95 -215 -104 -272 -4 -21 -8 -47 -11 -59
-12 -54 -15 -88 -15 -176 -1 -114 6 -175 26 -255 9 -33 17 -67 19 -75 6 -28
59 -154 81 -194 13 -23 31 -54 40 -71 25 -45 125 -164 180 -215 135 -125 325
-227 495 -264 23 -5 27 -11 27 -50 1 -24 2 -48 3 -52 1 -5 0 -13 -1 -19 -2
-14 -3 -128 0 -140 1 -5 2 -12 0 -15 -1 -3 -2 -46 -3 -96 l-1 -92 -318 1
c-175 0 -322 -3 -326 -7 -4 -4 -7 -102 -7 -217 0 -180 2 -209 15 -210 8 -1
157 -2 330 -3 273 -1 315 -3 312 -16 -8 -32 -7 -250 1 -250 5 0 6 -4 3 -9 -6
-9 -10 -107 -6 -126 1 -5 1 -14 0 -20 -1 -5 -2 -30 -1 -55 1 -50 1 -79 -2
-128 -1 -19 1 -36 5 -38 4 -3 4 -15 0 -27 -4 -12 -6 -38 -4 -57 3 -36 2 -60
-1 -118 -1 -19 1 -36 5 -38 4 -3 4 -15 0 -27 -4 -12 -6 -38 -4 -57 3 -36 2
-60 -1 -118 -1 -19 1 -36 5 -38 4 -3 4 -15 0 -27 -4 -12 -6 -37 -4 -54 3 -39
3 -45 2 -149 -1 -44 0 -84 1 -90 1 -5 0 -13 -1 -19 -2 -14 -3 -128 0 -140 1
-5 1 -14 0 -20 -2 -14 -3 -128 0 -140 1 -5 1 -14 0 -20 -2 -14 -3 -128 0 -140
1 -5 1 -14 0 -20 -2 -14 -3 -248 0 -260 1 -5 1 -14 0 -20 -4 -22 -1 -95 5
-105 3 -5 3 -10 -2 -10 -7 0 -9 -76 -3 -105 1 -5 1 -14 0 -20 -4 -22 -1 -95 5
-105 3 -5 3 -10 -2 -10 -9 0 -8 -203 1 -226 3 -8 2 -14 -2 -14 -8 0 -6 -205 2
-226 3 -8 2 -14 -2 -14 -4 0 -7 -52 -7 -115 0 -63 4 -115 8 -115 5 0 5 -5 2
-10 -7 -12 -50 -7 -192 21 -90 19 -159 40 -390 122 -18 7 -33 15 -33 19 0 5
-6 8 -12 8 -13 0 -21 4 -123 60 -216 119 -481 349 -594 514 -8 12 -18 23 -22
26 -19 14 -137 209 -184 306 -49 98 -121 286 -128 332 -1 9 -5 22 -9 27 -3 6
-9 30 -13 55 -4 25 -9 48 -11 52 -3 5 -3 8 -1 8 8 0 702 -350 714 -360 7 -6
17 -10 22 -10 6 0 25 -9 42 -19 l31 -19 99 196 98 197 -52 26 c-29 14 -133 66
-232 116 -243 123 -912 457 -1005 503 l-75 37 -70 -141 c-38 -77 -72 -143 -75
-146 -9 -8 -393 -785 -391 -789 2 -2 -1 -7 -6 -10 -8 -6 -144 -274 -140 -277
26 -20 383 -192 388 -187 4 5 69 131 145 282 l138 275 21 -65 c28 -83 59 -160
92 -229 15 -30 27 -57 28 -60 0 -3 7 -16 15 -30 8 -14 15 -27 15 -30 1 -12 93
-162 143 -235 160 -230 380 -453 602 -609 206 -146 551 -310 720 -343 8 -1 56
-14 105 -27 50 -13 114 -27 144 -31 30 -4 63 -9 75 -11 70 -14 165 -19 346
-18 235 1 290 6 470 45 52 11 106 22 119 25 14 3 28 7 31 9 4 2 22 7 40 10 18
3 38 9 44 13 6 4 13 7 16 7 67 8 402 163 529 245 34 22 66 40 71 40 4 0 10 4
12 8 2 4 33 29 69 55 148 105 337 287 459 442 39 50 75 95 80 102 30 37 125
193 173 283 55 103 123 265 148 347 6 23 15 41 18 38 4 -2 67 -124 141 -272
74 -147 136 -270 137 -271 1 -2 89 40 197 93 158 79 193 100 188 114 -20 48
-148 296 -154 299 -5 2 -8 10 -8 18 0 7 -9 29 -20 49 -41 73 -400 794 -400
804 0 5 -3 11 -7 13 -5 2 -23 35 -42 73 -18 39 -37 75 -42 81 -6 7 -40 -5
-106 -39 -54 -27 -323 -161 -598 -299 -275 -137 -516 -257 -535 -268 -19 -10
-55 -29 -79 -42 -24 -12 -43 -27 -42 -33 4 -31 179 -365 192 -370 10 -3 40 8
68 25 29 16 58 30 66 30 7 0 15 3 17 8 4 9 650 333 656 328 6 -7 -57 -236 -85
-306 -38 -95 -103 -233 -118 -250 -8 -8 -13 -18 -12 -21 2 -4 -87 -146 -115
-184 -98 -132 -311 -348 -398 -403 -14 -9 -30 -21 -37 -27 -44 -37 -120 -85
-133 -85 -5 0 -10 -3 -10 -8 0 -7 -162 -92 -252 -131 -82 -36 -258 -90 -362
-110 -151 -30 -173 -32 -178 -18 -2 6 -4 750 -4 1652 l1 1640 315 1 c173 1
321 2 328 3 9 1 12 51 12 216 l0 215 -328 0 -327 0 1 228 c2 248 2 248 9 240
19 -18 355 118 355 144 0 4 6 8 13 8 15 0 144 105 194 158 103 108 197 266
242 403 25 76 28 89 45 189 13 80 14 263 2 318 -5 19 -9 43 -11 55 -34 229
-211 509 -415 658 -112 82 -286 167 -374 183 -14 3 -34 7 -44 10 -9 3 -30 8
-47 12 -35 7 -299 16 -306 10z m211 -442 c142 -20 274 -87 368 -186 71 -75 82
-91 123 -173 157 -319 31 -705 -283 -864 -46 -23 -90 -43 -98 -44 -8 -2 -19
-5 -25 -9 -14 -9 -109 -21 -180 -23 -118 -3 -255 40 -361 113 -63 44 -144 117
-144 130 0 5 -9 17 -19 26 -20 18 -87 145 -96 181 -31 122 -38 244 -20 323 3
12 7 31 10 43 56 256 307 466 580 486 44 3 82 7 84 9 2 2 7 1 12 -1 4 -3 26
-8 49 -11z"/>
</g>
</svg>
